<?xml version="1.0" encoding="utf-8"?>
<!-- Generator: Adobe Illustrator 25.0.0, SVG Export Plug-In . SVG Version: 6.00 Build 0)  -->
<svg version="1.1" id="Layer_1" xmlns="http://www.w3.org/2000/svg" xmlns:xlink="http://www.w3.org/1999/xlink" x="0px" y="0px"
	 viewBox="0 0 398 109" style="enable-background:new 0 0 398 109;" xml:space="preserve">
<style type="text/css">
	.st0{fill:none;}
	.st1{fill:url(#SVGID_1_);}
	.st2{fill:url(#SVGID_2_);}
	.st3{fill:#FFFFFF;}
</style>
<g>
	<path class="st0" d="M84.5,27.6L45.6,66.5c-4.8,4.8-2.9,12.4,2.5,14.9l38.9-38.9C91.8,37.7,89.9,30.1,84.5,27.6z"/>
	
		<linearGradient id="SVGID_1_" gradientUnits="userSpaceOnUse" x1="59.1555" y1="-250.9664" x2="59.1555" y2="-168.6664" gradientTransform="matrix(1 0 0 -1 0 -168.6664)">
		<stop  offset="0" style="stop-color:#163554"/>
		<stop  offset="1.570000e-02" style="stop-color:#263556"/>
		<stop  offset="6.070000e-02" style="stop-color:#4F355B"/>
		<stop  offset="0.1112" style="stop-color:#753560"/>
		<stop  offset="0.1662" style="stop-color:#953564"/>
		<stop  offset="0.227" style="stop-color:#B13568"/>
		<stop  offset="0.2957" style="stop-color:#C7356A"/>
		<stop  offset="0.3758" style="stop-color:#D8356C"/>
		<stop  offset="0.475" style="stop-color:#E3356E"/>
		<stop  offset="0.614" style="stop-color:#EA356F"/>
		<stop  offset="1" style="stop-color:#EC356F"/>
	</linearGradient>
	<path class="st1" d="M80.3,0h-5.5H52.6h-6.3h-2.6H30.9h-2.3H2.1c0,14.7,11.9,26.7,26.5,26.7v0h15.1h4.3h4.5h27.9
		c1.5,0,2.8,0.3,4,0.9c5.4,2.6,7.3,10.1,2.6,14.9L48.1,81.4c1.2,0.6,2.5,0.9,4,0.9h32.4l21.1-21.1C128.2,38.6,112.2,0,80.3,0z"/>
	
		<linearGradient id="SVGID_2_" gradientUnits="userSpaceOnUse" x1="73.4745" y1="-195.3664" x2="73.4745" y2="-277.6664" gradientTransform="matrix(1 0 0 -1 0 -168.6664)">
		<stop  offset="1.497918e-08" style="stop-color:#163554"/>
		<stop  offset="1.930000e-02" style="stop-color:#2A3A5A"/>
		<stop  offset="6.410000e-02" style="stop-color:#534466"/>
		<stop  offset="0.1145" style="stop-color:#794E71"/>
		<stop  offset="0.1693" style="stop-color:#99567A"/>
		<stop  offset="0.2299" style="stop-color:#B55D82"/>
		<stop  offset="0.2983" style="stop-color:#CB6388"/>
		<stop  offset="0.3781" style="stop-color:#DB678D"/>
		<stop  offset="0.4769" style="stop-color:#E76A90"/>
		<stop  offset="0.6154" style="stop-color:#EE6C92"/>
		<stop  offset="1" style="stop-color:#F06C93"/>
	</linearGradient>
	<path class="st2" d="M104,82.3L104,82.3l-10.1,0h-8.8h-0.5H52.1c-1.5,0-2.8-0.3-4-0.9c-5.4-2.6-7.3-10.1-2.5-14.9l38.9-38.9
		c-1.2-0.6-2.5-0.9-4-0.9H52.6h-4.5L27,47.8C4.4,70.4,20.4,109,52.4,109h5.5h27.2h1.2h7.6h7.8h2.3h26.5
		C130.5,94.3,118.7,82.3,104,82.3z"/>
</g>
<path class="st3" d="M182.9,78.3c-1.2,2.9-3.2,4.7-6.1,4.7h-0.6c-2.9,0-5-1.8-6.3-4.7l-17.1-41c-0.9-2.4,0.4-5.6,3.2-6.2
	c2.6-0.8,5,0.5,6.1,3.3l14.3,36.4l14.2-36.4c1.1-2.7,3.5-4,6.1-3.3c2.7,0.7,3.9,3.8,3.1,6.2L182.9,78.3z"/>
<path class="st3" d="M215.9,6.3c3.8,0,6.9,2.7,6.9,6.4s-3.1,6.4-6.9,6.4c-3.7,0-6.9-2.7-6.9-6.4C209,9,212.2,6.3,215.9,6.3z
	 M220.9,35.9c0-2.7-2.2-5-5-5c-2.7,0-4.9,2.3-4.9,5V78c0,2.7,2.2,5,4.9,5c2.8,0,5-2.3,5-5V35.9z"/>
<path class="st3" d="M263.6,40.9h-24.4c-2.6,0-4.8-2.1-4.8-4.7c0-2.7,2.2-4.8,4.8-4.8h33.9c3.2,0,5.6,2.1,5.6,4.7v0.2
	c0,2-0.8,3.5-2.4,5.4L247.2,73h26.7c2.6,0,4.8,2.1,4.8,4.8c0,2.6-2.2,4.7-4.8,4.7h-35.6c-3.2,0-5.6-2.1-5.6-4.7v-0.2
	c0-2,0.8-3.5,2.4-5.4L263.6,40.9z"/>
<path class="st3" d="M333.8,60.7h-37.6c1.2,8.5,7.9,13.9,16.5,13.9c6.1,0,9.5-1.5,13-5.4c1.9-2.1,4.7-2.7,6.7-1.3
	c2,1.5,2.4,4.5,0.9,6.2c-4.9,6.3-12.6,9.4-20.9,9.4c-14.5,0-26.1-10.6-26.1-26.8s11.6-26.5,26.1-26.5s25.4,10.3,25.4,26.5
	C337.8,59.1,335.9,60.7,333.8,60.7z M327.9,53c-1.2-8.5-7.3-13.7-15.5-13.7c-8.4,0-15,5.1-16.2,13.7C296.2,52.9,327.9,52.9,327.9,53
	z"/>
<path class="st3" d="M394.1,60.7h-37.6c1.2,8.5,7.9,13.9,16.5,13.9c6.1,0,9.5-1.5,13-5.4c1.9-2.1,4.7-2.7,6.7-1.3
	c2,1.5,2.4,4.5,0.9,6.2c-4.9,6.3-12.6,9.4-20.9,9.4c-14.5,0-26.1-10.6-26.1-26.8s11.6-26.5,26.1-26.5S398,40.6,398,56.8
	C398,59.1,396.1,60.7,394.1,60.7z M388.2,53c-1.2-8.5-7.3-13.7-15.5-13.7c-8.4,0-15,5.1-16.2,13.7C356.5,52.9,388.2,52.9,388.2,53z"
	/>
</svg>
